<mxfile host="app.diagrams.net" modified="2023-05-21T18:14:39.510Z" agent="Mozilla/5.0 (Windows NT 10.0; Win64; x64) AppleWebKit/537.36 (KHTML, like Gecko) Chrome/113.0.0.0 Safari/537.36" etag="pvt0E1WVF-wu7_DwZbWT" version="21.3.2" type="device">
  <diagram name="Страница 1" id="Uk5ZUMF95CWzdHFvb9wH">
    <mxGraphModel dx="2074" dy="1148" grid="1" gridSize="10" guides="1" tooltips="1" connect="1" arrows="1" fold="1" page="1" pageScale="1" pageWidth="827" pageHeight="1169" math="0" shadow="0">
      <root>
        <mxCell id="0" />
        <mxCell id="1" parent="0" />
        <mxCell id="XN29rbCHbIWD0UDoh509-3" style="edgeStyle=orthogonalEdgeStyle;rounded=0;orthogonalLoop=1;jettySize=auto;html=1;entryX=0.5;entryY=0;entryDx=0;entryDy=0;" edge="1" parent="1" source="XN29rbCHbIWD0UDoh509-1" target="XN29rbCHbIWD0UDoh509-2">
          <mxGeometry relative="1" as="geometry" />
        </mxCell>
        <mxCell id="XN29rbCHbIWD0UDoh509-1" value="Начало&lt;br&gt;sumBetweenPositive" style="ellipse;whiteSpace=wrap;html=1;" vertex="1" parent="1">
          <mxGeometry x="354" y="10" width="120" height="80" as="geometry" />
        </mxCell>
        <mxCell id="XN29rbCHbIWD0UDoh509-5" value="TRUE" style="edgeStyle=orthogonalEdgeStyle;rounded=0;orthogonalLoop=1;jettySize=auto;html=1;entryX=0.5;entryY=0;entryDx=0;entryDy=0;" edge="1" parent="1" source="XN29rbCHbIWD0UDoh509-2" target="XN29rbCHbIWD0UDoh509-4">
          <mxGeometry relative="1" as="geometry" />
        </mxCell>
        <mxCell id="XN29rbCHbIWD0UDoh509-8" value="FALSE" style="edgeStyle=orthogonalEdgeStyle;rounded=0;orthogonalLoop=1;jettySize=auto;html=1;entryX=0.5;entryY=0;entryDx=0;entryDy=0;" edge="1" parent="1" source="XN29rbCHbIWD0UDoh509-2" target="XN29rbCHbIWD0UDoh509-7">
          <mxGeometry x="-0.7551" relative="1" as="geometry">
            <mxPoint x="408" y="300" as="targetPoint" />
            <Array as="points">
              <mxPoint x="501" y="150" />
              <mxPoint x="501" y="290" />
              <mxPoint x="414" y="290" />
            </Array>
            <mxPoint as="offset" />
          </mxGeometry>
        </mxCell>
        <mxCell id="XN29rbCHbIWD0UDoh509-2" value="&lt;div style=&quot;font-size: 14px; line-height: 19px;&quot;&gt;&lt;span style=&quot;background-color: rgb(255, 255, 255);&quot;&gt;i &amp;lt; amountOfElements &amp;amp;&amp;amp; array[i] &amp;lt;= 0&lt;/span&gt;&lt;/div&gt;" style="rhombus;whiteSpace=wrap;html=1;" vertex="1" parent="1">
          <mxGeometry x="374" y="110" width="80" height="80" as="geometry" />
        </mxCell>
        <mxCell id="XN29rbCHbIWD0UDoh509-6" style="edgeStyle=orthogonalEdgeStyle;rounded=0;orthogonalLoop=1;jettySize=auto;html=1;entryX=0;entryY=0.5;entryDx=0;entryDy=0;" edge="1" parent="1" source="XN29rbCHbIWD0UDoh509-4" target="XN29rbCHbIWD0UDoh509-2">
          <mxGeometry relative="1" as="geometry">
            <mxPoint x="330" y="150" as="targetPoint" />
            <Array as="points">
              <mxPoint x="331" y="250" />
              <mxPoint x="331" y="150" />
            </Array>
          </mxGeometry>
        </mxCell>
        <mxCell id="XN29rbCHbIWD0UDoh509-4" value="i++" style="rounded=0;whiteSpace=wrap;html=1;" vertex="1" parent="1">
          <mxGeometry x="354" y="220" width="120" height="60" as="geometry" />
        </mxCell>
        <mxCell id="XN29rbCHbIWD0UDoh509-13" style="edgeStyle=orthogonalEdgeStyle;rounded=0;orthogonalLoop=1;jettySize=auto;html=1;entryX=0.5;entryY=0;entryDx=0;entryDy=0;" edge="1" parent="1" source="XN29rbCHbIWD0UDoh509-7" target="XN29rbCHbIWD0UDoh509-10">
          <mxGeometry relative="1" as="geometry" />
        </mxCell>
        <mxCell id="XN29rbCHbIWD0UDoh509-7" value="i++" style="rounded=0;whiteSpace=wrap;html=1;" vertex="1" parent="1">
          <mxGeometry x="354" y="310" width="120" height="60" as="geometry" />
        </mxCell>
        <mxCell id="XN29rbCHbIWD0UDoh509-15" value="TRUE" style="edgeStyle=orthogonalEdgeStyle;rounded=0;orthogonalLoop=1;jettySize=auto;html=1;entryX=0.5;entryY=0;entryDx=0;entryDy=0;" edge="1" parent="1" source="XN29rbCHbIWD0UDoh509-10" target="XN29rbCHbIWD0UDoh509-14">
          <mxGeometry relative="1" as="geometry" />
        </mxCell>
        <mxCell id="XN29rbCHbIWD0UDoh509-20" value="FALSE" style="edgeStyle=orthogonalEdgeStyle;rounded=0;orthogonalLoop=1;jettySize=auto;html=1;entryX=0.5;entryY=0;entryDx=0;entryDy=0;" edge="1" parent="1" source="XN29rbCHbIWD0UDoh509-10" target="XN29rbCHbIWD0UDoh509-19">
          <mxGeometry x="-0.791" y="9" relative="1" as="geometry">
            <mxPoint x="410" y="670" as="targetPoint" />
            <Array as="points">
              <mxPoint x="491" y="440" />
              <mxPoint x="491" y="670" />
              <mxPoint x="414" y="670" />
            </Array>
            <mxPoint as="offset" />
          </mxGeometry>
        </mxCell>
        <mxCell id="XN29rbCHbIWD0UDoh509-10" value="&lt;div style=&quot;font-size: 14px; line-height: 19px;&quot;&gt;&lt;span style=&quot;background-color: rgb(255, 255, 255);&quot;&gt;i &amp;lt; amountOfElements &amp;amp;&amp;amp; array[i] &amp;lt;= 0&lt;/span&gt;&lt;/div&gt;" style="rhombus;whiteSpace=wrap;html=1;" vertex="1" parent="1">
          <mxGeometry x="374" y="400" width="80" height="80" as="geometry" />
        </mxCell>
        <mxCell id="XN29rbCHbIWD0UDoh509-18" style="edgeStyle=orthogonalEdgeStyle;rounded=0;orthogonalLoop=1;jettySize=auto;html=1;entryX=0;entryY=0.5;entryDx=0;entryDy=0;" edge="1" parent="1" source="XN29rbCHbIWD0UDoh509-12" target="XN29rbCHbIWD0UDoh509-10">
          <mxGeometry relative="1" as="geometry">
            <mxPoint x="330" y="430" as="targetPoint" />
            <Array as="points">
              <mxPoint x="331" y="615" />
              <mxPoint x="331" y="440" />
            </Array>
          </mxGeometry>
        </mxCell>
        <mxCell id="XN29rbCHbIWD0UDoh509-12" value="i++" style="rounded=0;whiteSpace=wrap;html=1;" vertex="1" parent="1">
          <mxGeometry x="354" y="584.5" width="120" height="60" as="geometry" />
        </mxCell>
        <mxCell id="XN29rbCHbIWD0UDoh509-17" style="edgeStyle=orthogonalEdgeStyle;rounded=0;orthogonalLoop=1;jettySize=auto;html=1;entryX=0.5;entryY=0;entryDx=0;entryDy=0;" edge="1" parent="1" source="XN29rbCHbIWD0UDoh509-14" target="XN29rbCHbIWD0UDoh509-12">
          <mxGeometry relative="1" as="geometry" />
        </mxCell>
        <mxCell id="XN29rbCHbIWD0UDoh509-14" value="&lt;div style=&quot;font-size: 14px; line-height: 19px;&quot;&gt;&lt;span style=&quot;background-color: rgb(255, 255, 255);&quot;&gt;sum += array[i]&lt;/span&gt;&lt;/div&gt;" style="rounded=0;whiteSpace=wrap;html=1;" vertex="1" parent="1">
          <mxGeometry x="354" y="500" width="120" height="60" as="geometry" />
        </mxCell>
        <mxCell id="XN29rbCHbIWD0UDoh509-19" value="Конец" style="ellipse;whiteSpace=wrap;html=1;" vertex="1" parent="1">
          <mxGeometry x="354" y="680" width="120" height="80" as="geometry" />
        </mxCell>
      </root>
    </mxGraphModel>
  </diagram>
</mxfile>
